MythBusters S10E08 WEBRip XviD-NoGRP

Season 10, Episode 08– “Bouncing Bullet”
Adam and Jamie take aim at a ricochet myth from the TV show Burn Notice while Kari, Tory and Grant test the Hollywood myth that if you jump when running away from an explosion, you can surf the shockwave.


      Format : AVI
      Format/Info : Audio Video Interleave
      File size : 349 MiB
      Duration : 42mn 32s
      Overall bit rate : 1 148 Kbps
      Writing application : MEncoder Sherpya-MT-SVN-r32848-4.5.0
      Writing library : MPlayer
   Video #0
      ID : 0
      Format : MPEG-4 Visual
      Format profile : Simple@L3
      Format settings, BVOP : No
      Format settings, QPel : No
      Format settings, GMC : No warppoints
      Format settings, Matrix : Default (H.263)
      Codec ID : XVID
      Codec ID/Hint : XviD
      Duration : 42mn 32s
      Bit rate : 1 008 Kbps
      Width : 640 pixels
      Height : 352 pixels
      Display aspect ratio : 16:9
      Frame rate : 25.000 fps
      Color space : YUV
      Chroma subsampling : 4:2:0
      Bit depth : 8 bits
      Scan type : Progressive
      Compression mode : Lossy
      Bits/(Pixel*Frame) : 0.179
      Stream size : 307 MiB (88%)
      Writing library : XviD 61
   Audio #1
      ID : 1
      Format : MPEG Audio
      Format version : Version 1
      Format profile : Layer 3
      Mode : Joint stereo
      Mode extension : MS Stereo
      Codec ID : 55
      Codec ID/Hint : MP3
      Duration : 42mn 32s
      Bit rate mode : Constant
      Bit rate : 128 Kbps
      Channel(s) : 2 channels
      Sampling rate : 44.1 KHz
      Compression mode : Lossy
      Stream size : 39.0 MiB (11%)
      Alignment : Aligned on interleaves
      Interleave, duration : 26 ms (0.65 video frame)
      Writing library : LAME3.98.]8€ÈgÌ€Q